<svg width="1920" height="1080" viewBox="0 0 1920 1080" fill="none" xmlns="http://www.w3.org/2000/svg">
<g opacity="0.4" clip-path="url(#clip0_24_2)">
<rect width="1920" height="1080" fill="#1A1A1A"/>
<g filter="url(#filter0_f_24_2)">
<ellipse cx="1068" cy="342" rx="319" ry="179" fill="#4D9AFA"/>
</g>
<g filter="url(#filter1_f_24_2)">
<ellipse cx="641" cy="551" rx="319" ry="179" fill="#4D9AFA"/>
</g>
<g filter="url(#filter2_f_24_2)">
<ellipse cx="1164" cy="637" rx="319" ry="179" fill="#4D9AFA"/>
</g>
<g opacity="0.78" filter="url(#filter3_df_24_2)">
<ellipse cx="19.1298" cy="16.8702" rx="19.1298" ry="16.8702" transform="matrix(0.999999 0.00108848 0.0302963 -0.999541 1669.36 492.357)" fill="#13366D"/>
</g>
<g opacity="0.78" filter="url(#filter4_df_24_2)">
<ellipse cx="19.1298" cy="16.8702" rx="19.1298" ry="16.8702" transform="matrix(0.999999 0.00108848 0.0302963 -0.999541 1072.36 968.357)" fill="#13366D"/>
</g>
<g opacity="0.78" filter="url(#filter5_df_24_2)">
<ellipse cx="15.4296" cy="13.6071" rx="15.4296" ry="13.6071" transform="matrix(0.998734 -0.0503092 0.0816289 -0.996663 766.479 244.81)" fill="#13366D"/>
</g>
<g opacity="0.78" filter="url(#filter6_df_24_2)">
<ellipse cx="19.1298" cy="16.8702" rx="19.1298" ry="16.8702" transform="matrix(0.999999 0.00108848 0.0302963 -0.999541 1007.36 396.357)" fill="#13366D"/>
</g>
<path d="M4.76626 639.558C4.52215 639.688 4.42895 639.99 4.55806 640.234C4.68716 640.478 4.98971 640.572 5.23382 640.442L5.00004 640L4.76626 639.558ZM769.235 236.179C769.316 235.915 769.168 235.635 768.904 235.554L764.604 234.229C764.34 234.148 764.06 234.296 763.979 234.56C763.898 234.824 764.046 235.103 764.31 235.185L768.132 236.363L766.954 240.185C766.873 240.449 767.021 240.729 767.285 240.81C767.549 240.892 767.829 240.744 767.91 240.48L769.235 236.179ZM5.00004 640L5.23382 640.442L768.991 236.474L768.757 236.032L768.523 235.59L4.76626 639.558L5.00004 640Z" fill="url(#paint0_linear_24_2)"/>
<path d="M795.593 235.606C795.358 235.461 795.05 235.535 794.906 235.77C794.761 236.005 794.834 236.313 795.07 236.458L795.332 236.032L795.593 235.606ZM1013.62 370.665C1013.88 370.601 1014.05 370.331 1013.99 370.063L1012.94 365.686C1012.88 365.417 1012.61 365.251 1012.34 365.315C1012.07 365.379 1011.91 365.649 1011.97 365.918L1012.9 369.808L1009.01 370.736C1008.74 370.8 1008.57 371.07 1008.64 371.339C1008.7 371.607 1008.97 371.773 1009.24 371.709L1013.62 370.665ZM795.332 236.032L795.07 236.458L1013.24 370.605L1013.5 370.179L1013.76 369.753L795.593 235.606L795.332 236.032Z" fill="url(#paint1_linear_24_2)"/>
<path d="M1030.16 395.476C1030.13 395.201 1029.89 395.004 1029.61 395.035C1029.34 395.066 1029.14 395.314 1029.17 395.588L1029.67 395.532L1030.16 395.476ZM1090.29 935.423C1090.51 935.595 1090.82 935.56 1090.99 935.344L1093.8 931.825C1093.97 931.609 1093.93 931.294 1093.72 931.122C1093.5 930.95 1093.19 930.986 1093.01 931.201L1090.52 934.329L1087.39 931.836C1087.18 931.664 1086.86 931.7 1086.69 931.916C1086.52 932.132 1086.55 932.446 1086.77 932.618L1090.29 935.423ZM1029.67 395.532L1029.17 395.588L1090.1 935.088L1090.6 935.032L1091.1 934.976L1030.16 395.476L1029.67 395.532Z" fill="url(#paint2_linear_24_2)"/>
<path d="M1105.19 941.156C1104.97 941.329 1104.94 941.643 1105.11 941.859C1105.28 942.074 1105.6 942.109 1105.81 941.936L1105.5 941.546L1105.19 941.156ZM1675 485.705C1675.03 485.43 1674.83 485.183 1674.55 485.153L1670.08 484.659C1669.81 484.629 1669.56 484.827 1669.53 485.101C1669.5 485.376 1669.7 485.623 1669.97 485.653L1673.95 486.092L1673.51 490.068C1673.48 490.342 1673.68 490.589 1673.95 490.62C1674.23 490.65 1674.47 490.452 1674.5 490.178L1675 485.705ZM1105.5 941.546L1105.81 941.936L1674.81 486.04L1674.5 485.65L1674.19 485.26L1105.19 941.156L1105.5 941.546Z" fill="url(#paint3_linear_24_2)"/>
<path d="M1703.74 485.26C1703.53 485.087 1703.21 485.121 1703.04 485.336C1702.87 485.551 1702.9 485.866 1703.11 486.039L1703.43 485.65L1703.74 485.26ZM1920.05 660.529C1920.33 660.499 1920.53 660.253 1920.5 659.978L1920.01 655.504C1919.98 655.23 1919.74 655.031 1919.46 655.061C1919.19 655.09 1918.99 655.337 1919.02 655.611L1919.45 659.588L1915.47 660.017C1915.2 660.047 1915 660.294 1915.03 660.568C1915.06 660.843 1915.31 661.041 1915.58 661.012L1920.05 660.529ZM1703.43 485.65L1703.11 486.039L1919.69 660.421L1920 660.032L1920.31 659.642L1703.74 485.26L1703.43 485.65Z" fill="url(#paint4_linear_24_2)"/>
</g>
<defs>
<filter id="filter0_f_24_2" x="331.8" y="-254.2" width="1472.4" height="1192.4" filterUnits="userSpaceOnUse" color-interpolation-filters="sRGB">
<feFlood flood-opacity="0" result="BackgroundImageFix"/>
<feBlend mode="normal" in="SourceGraphic" in2="BackgroundImageFix" result="shape"/>
<feGaussianBlur stdDeviation="208.6" result="effect1_foregroundBlur_24_2"/>
</filter>
<filter id="filter1_f_24_2" x="-95.2" y="-45.2" width="1472.4" height="1192.4" filterUnits="userSpaceOnUse" color-interpolation-filters="sRGB">
<feFlood flood-opacity="0" result="BackgroundImageFix"/>
<feBlend mode="normal" in="SourceGraphic" in2="BackgroundImageFix" result="shape"/>
<feGaussianBlur stdDeviation="208.6" result="effect1_foregroundBlur_24_2"/>
</filter>
<filter id="filter2_f_24_2" x="427.8" y="40.7997" width="1472.4" height="1192.4" filterUnits="userSpaceOnUse" color-interpolation-filters="sRGB">
<feFlood flood-opacity="0" result="BackgroundImageFix"/>
<feBlend mode="normal" in="SourceGraphic" in2="BackgroundImageFix" result="shape"/>
<feGaussianBlur stdDeviation="208.6" result="effect1_foregroundBlur_24_2"/>
</filter>
<filter id="filter3_df_24_2" x="1566.96" y="355.753" width="244.073" height="239.525" filterUnits="userSpaceOnUse" color-interpolation-filters="sRGB">
<feFlood flood-opacity="0" result="BackgroundImageFix"/>
<feColorMatrix in="SourceAlpha" type="matrix" values="0 0 0 0 0 0 0 0 0 0 0 0 0 0 0 0 0 0 127 0" result="hardAlpha"/>
<feMorphology radius="56" operator="dilate" in="SourceAlpha" result="effect1_dropShadow_24_2"/>
<feOffset/>
<feGaussianBlur stdDeviation="23.45"/>
<feComposite in2="hardAlpha" operator="out"/>
<feColorMatrix type="matrix" values="0 0 0 0 0.109514 0 0 0 0 0.443962 0 0 0 0 0.990385 0 0 0 1 0"/>
<feBlend mode="exclusion" in2="BackgroundImageFix" result="effect1_dropShadow_24_2"/>
<feBlend mode="normal" in="SourceGraphic" in2="effect1_dropShadow_24_2" result="shape"/>
<feGaussianBlur stdDeviation="2" result="effect2_foregroundBlur_24_2"/>
</filter>
<filter id="filter4_df_24_2" x="969.963" y="831.753" width="244.074" height="239.525" filterUnits="userSpaceOnUse" color-interpolation-filters="sRGB">
<feFlood flood-opacity="0" result="BackgroundImageFix"/>
<feColorMatrix in="SourceAlpha" type="matrix" values="0 0 0 0 0 0 0 0 0 0 0 0 0 0 0 0 0 0 127 0" result="hardAlpha"/>
<feMorphology radius="56" operator="dilate" in="SourceAlpha" result="effect1_dropShadow_24_2"/>
<feOffset/>
<feGaussianBlur stdDeviation="23.45"/>
<feComposite in2="hardAlpha" operator="out"/>
<feColorMatrix type="matrix" values="0 0 0 0 0.109514 0 0 0 0 0.443962 0 0 0 0 0.990385 0 0 0 1 0"/>
<feBlend mode="exclusion" in2="BackgroundImageFix" result="effect1_dropShadow_24_2"/>
<feBlend mode="normal" in="SourceGraphic" in2="effect1_dropShadow_24_2" result="shape"/>
<feGaussianBlur stdDeviation="2" result="effect2_foregroundBlur_24_2"/>
</filter>
<filter id="filter5_df_24_2" x="669.649" y="118.987" width="226.701" height="222.969" filterUnits="userSpaceOnUse" color-interpolation-filters="sRGB">
<feFlood flood-opacity="0" result="BackgroundImageFix"/>
<feColorMatrix in="SourceAlpha" type="matrix" values="0 0 0 0 0 0 0 0 0 0 0 0 0 0 0 0 0 0 127 0" result="hardAlpha"/>
<feMorphology radius="51" operator="dilate" in="SourceAlpha" result="effect1_dropShadow_24_2"/>
<feOffset/>
<feGaussianBlur stdDeviation="23.45"/>
<feComposite in2="hardAlpha" operator="out"/>
<feColorMatrix type="matrix" values="0 0 0 0 0.109514 0 0 0 0 0.443962 0 0 0 0 0.990385 0 0 0 1 0"/>
<feBlend mode="exclusion" in2="BackgroundImageFix" result="effect1_dropShadow_24_2"/>
<feBlend mode="normal" in="SourceGraphic" in2="effect1_dropShadow_24_2" result="shape"/>
<feGaussianBlur stdDeviation="2" result="effect2_foregroundBlur_24_2"/>
</filter>
<filter id="filter6_df_24_2" x="904.963" y="259.753" width="244.074" height="239.525" filterUnits="userSpaceOnUse" color-interpolation-filters="sRGB">
<feFlood flood-opacity="0" result="BackgroundImageFix"/>
<feColorMatrix in="SourceAlpha" type="matrix" values="0 0 0 0 0 0 0 0 0 0 0 0 0 0 0 0 0 0 127 0" result="hardAlpha"/>
<feMorphology radius="56" operator="dilate" in="SourceAlpha" result="effect1_dropShadow_24_2"/>
<feOffset/>
<feGaussianBlur stdDeviation="23.45"/>
<feComposite in2="hardAlpha" operator="out"/>
<feColorMatrix type="matrix" values="0 0 0 0 0.109514 0 0 0 0 0.443962 0 0 0 0 0.990385 0 0 0 1 0"/>
<feBlend mode="exclusion" in2="BackgroundImageFix" result="effect1_dropShadow_24_2"/>
<feBlend mode="normal" in="SourceGraphic" in2="effect1_dropShadow_24_2" result="shape"/>
<feGaussianBlur stdDeviation="2" result="effect2_foregroundBlur_24_2"/>
</filter>
<linearGradient id="paint0_linear_24_2" x1="2054.28" y1="299.103" x2="301" y2="1165.03" gradientUnits="userSpaceOnUse">
<stop offset="0.0552676" stop-color="white"/>
<stop offset="0.911592" stop-color="#1A1A1A"/>
<stop offset="1" stop-color="#1A1A1A"/>
</linearGradient>
<linearGradient id="paint1_linear_24_2" x1="2054.28" y1="299.103" x2="301" y2="1165.03" gradientUnits="userSpaceOnUse">
<stop offset="0.0552676" stop-color="white"/>
<stop offset="0.911592" stop-color="#1A1A1A"/>
<stop offset="1" stop-color="#1A1A1A"/>
</linearGradient>
<linearGradient id="paint2_linear_24_2" x1="2054.28" y1="299.103" x2="301" y2="1165.03" gradientUnits="userSpaceOnUse">
<stop offset="0.0552676" stop-color="white"/>
<stop offset="0.911592" stop-color="#1A1A1A"/>
<stop offset="1" stop-color="#1A1A1A"/>
</linearGradient>
<linearGradient id="paint3_linear_24_2" x1="2054.28" y1="299.103" x2="301" y2="1165.03" gradientUnits="userSpaceOnUse">
<stop offset="0.0552676" stop-color="white"/>
<stop offset="0.911592" stop-color="#1A1A1A"/>
<stop offset="1" stop-color="#1A1A1A"/>
</linearGradient>
<linearGradient id="paint4_linear_24_2" x1="2054.28" y1="299.103" x2="301" y2="1165.03" gradientUnits="userSpaceOnUse">
<stop offset="0.0552676" stop-color="white"/>
<stop offset="0.911592" stop-color="#1A1A1A"/>
<stop offset="1" stop-color="#1A1A1A"/>
</linearGradient>
<clipPath id="clip0_24_2">
<rect width="1920" height="1080" fill="white"/>
</clipPath>
</defs>
</svg>
